<?xml version="1.0" encoding="UTF-8"?>
<svg width="39px" height="40px" viewBox="0 0 39 40" version="1.1" xmlns="http://www.w3.org/2000/svg" xmlns:xlink="http://www.w3.org/1999/xlink">
    <title>bigdata</title>
    <g id="Page-1" stroke="none" stroke-width="1" fill="none" fill-rule="evenodd">
        <g id="J&amp;S" transform="translate(-1387.000000, -1153.000000)" fill="#0376F7">
            <g id="App-Overview" transform="translate(374.000000, 958.000000)">
                <g id="Content" transform="translate(907.000000, 193.000000)">
                    <path d="M125.454859,8.450833 C129.974248,8.450833 133.65121,12.21372 133.65121,16.837983 L133.65121,16.837983 L133.65121,24.579875 C133.65121,25.646834 132.80251,26.515262 131.759757,26.515262 L131.759757,26.515262 L130.48683,26.515262 C129.978594,27.205455 129.340593,27.788191 128.607226,28.223566 L128.607226,28.223566 L128.607226,28.557719 L132.820837,29.342125 C134.407086,29.637578 135.708426,30.792085 136.218466,32.356984 L136.218466,32.356984 L137.678066,36.838186 L124.149091,36.838186 L125.106851,37.816436 L122.035705,40.695286 C121.221814,41.529314 120.113994,41.999476 118.935039,41.999476 C117.755961,41.999476 116.647608,41.529314 115.814119,40.676108 L115.814119,40.676108 L107.293089,31.95674 C106.4596,31.103964 106.000564,29.97057 106.000564,28.763689 C106.000564,27.557195 106.4596,26.423414 107.293089,25.570638 L107.293089,25.570638 L110.107534,22.690627 L114.781985,27.473947 L112.291645,30.021396 C112.045686,30.273075 112.045686,30.68265 112.291645,30.934372 L112.291645,30.934372 L114.438979,33.131973 L114.691211,32.356984 C115.200595,30.792085 116.502591,29.637578 118.088307,29.342125 L118.088307,29.342125 L122.302451,28.557719 L122.302451,28.223566 C120.755234,27.304355 119.622814,25.735156 119.269189,23.881469 C118.122952,23.63839 117.25859,22.598392 117.25859,21.354402 L117.25859,21.354402 L117.25859,16.837983 C117.25859,12.21372 120.935593,8.450833 125.454859,8.450833 Z M108.530059,26.128735 L108.183322,26.483227 C107.588084,27.092537 107.26033,27.9027 107.26033,28.764463 C107.26033,29.625882 107.588084,30.436045 108.183322,31.044968 L108.183322,31.044968 L116.704352,39.763949 C117.300123,40.373216 118.092079,40.709347 118.933768,40.709347 C119.775498,40.709347 120.56729,40.373216 121.162528,39.76511 L121.162528,39.76511 L121.524394,39.425883 L118.619749,36.453637 L118.572476,36.496594 C118.238326,36.840164 117.763628,37.041447 117.257893,37.041447 C116.752322,37.041447 116.277501,36.839777 115.919981,36.47432 L115.919981,36.47432 L111.398747,31.848122 C110.661772,31.093042 110.661772,29.865435 111.398747,29.110355 L111.398747,29.110355 L111.421543,29.08692 L108.530059,26.128735 Z M120.389596,34.816455 L119.556681,35.58637 L122.455012,38.552381 L123.282884,37.776575 L120.389596,34.816455 Z M128.188616,29.791561 L125.454859,32.589098 L122.720405,29.791174 L118.313397,30.610367 C117.180321,30.821798 116.250359,31.647226 115.886566,32.764581 L115.886566,32.764581 L115.435197,34.151632 L116.812141,35.560957 C117.050556,35.80524 117.465968,35.80524 117.703645,35.560957 L117.703645,35.560957 L120.4324,33.035051 L122.888177,35.54767 L135.92917,35.54767 L135.021881,32.765398 C134.658088,31.647226 133.728126,30.822185 132.595173,30.611141 L132.595173,30.611141 L128.188616,29.791561 Z M141.000747,14.016968 L144.693494,16.284573 L144.044751,17.391006 L142.191715,16.253699 C142.797695,18.098786 143.108516,20.02596 143.108516,21.99923 C143.108516,26.1311 141.710047,30.170692 139.170466,33.373891 L139.170466,33.373891 L138.191304,32.560976 C140.548681,29.587182 141.847479,25.836378 141.847479,21.99923 C141.847479,20.135395 141.550516,18.316882 140.969833,16.577704 L140.969833,16.577704 L139.866523,18.4599 L138.785271,17.796281 L141.000747,14.016968 Z M127.346312,28.798476 C126.748614,28.991159 126.113688,29.096294 125.454859,29.096294 C124.79603,29.096294 124.161104,28.991159 123.563365,28.798476 L123.563365,28.798476 L123.563365,28.828963 L125.454859,30.764737 L127.346312,28.828963 Z M110.10696,24.514601 L109.42226,25.215372 L112.31358,28.174331 L112.99828,27.473947 L110.10696,24.514601 Z M125.454859,17.101788 C124.069674,18.448978 122.304296,19.248606 120.410998,19.394376 L120.410998,19.394376 L120.410998,22.644488 C120.410998,25.490142 122.673829,27.805778 125.454859,27.805778 C126.729016,27.805778 127.891079,27.316481 128.780041,26.515262 L128.780041,26.515262 L125.454859,26.515262 L125.454859,25.22552 L129.816521,25.22552 C130.247882,24.465366 130.49872,23.585242 130.49872,22.644488 L130.49872,22.644488 L130.49872,19.394376 C128.605422,19.248993 126.840044,18.448978 125.454859,17.101788 Z M132.390214,23.575868 C132.15881,23.714586 131.91035,23.823634 131.640611,23.881469 C131.550985,24.349309 131.412282,24.798745 131.229422,25.22552 L131.229422,25.22552 L131.759757,25.22552 C132.107068,25.22552 132.390214,24.936302 132.390214,24.579875 L132.390214,24.579875 Z M131.759757,20.243282 L131.759757,22.465135 C132.134866,22.241191 132.390214,21.829638 132.390214,21.354402 C132.390214,20.879123 132.134866,20.467226 131.759757,20.243282 L131.759757,20.243282 Z M119.149961,20.243282 C118.774811,20.467226 118.519504,20.879123 118.519504,21.354402 C118.519504,21.829638 118.774811,22.241191 119.149961,22.465135 L119.149961,22.465135 Z M125.454859,3.935188 C127.237826,3.935188 128.997587,4.205658 130.685352,4.741481 L130.685352,4.741481 L130.312047,5.973775 C128.745355,5.476996 127.111136,5.225317 125.454859,5.225317 C117.877034,5.225317 111.338313,10.538225 109.551451,17.978816 L109.551451,17.978816 L111.260044,16.929831 L111.908828,18.036264 L108.216163,20.303826 L105.99999,16.52533 L107.081242,15.861281 L108.276023,17.899481 C110.120777,9.765945 117.216934,3.935188 125.454859,3.935188 Z M125.454859,9.741349 C121.630912,9.741349 118.519504,12.925026 118.519504,16.837983 L118.519504,16.837983 L118.519504,19.132549 C118.714951,19.015675 118.925527,18.925375 119.149961,18.865218 L119.149961,18.865218 L119.149961,18.128499 L119.780541,18.128499 C121.644893,18.128499 123.397561,17.384728 124.716572,16.03599 L124.716572,16.03599 L125.454859,15.28091 L126.193105,16.03599 C127.512157,17.384728 129.264948,18.128499 131.1293,18.128499 L131.1293,18.128499 L131.759757,18.128499 L131.759757,18.865218 C131.98415,18.924601 132.194726,19.015675 132.390214,19.132549 L132.390214,19.132549 L132.390214,16.837983 C132.390214,12.925026 129.278765,9.741349 125.454859,9.741349 Z M143.108516,1.999414 C144.15131,1.999414 144.999887,2.867455 144.999887,3.935188 L144.999887,3.935188 L144.999887,9.096091 C144.999887,10.163437 144.15131,11.031865 143.108516,11.031865 L143.108516,11.031865 L141.397955,11.031865 L135.313801,14.922548 L135.96566,11.031865 L134.281667,11.031865 C133.238873,11.031865 132.390214,10.163437 132.390214,9.096091 L132.390214,9.096091 L132.390214,3.935188 C132.390214,2.867455 133.238873,1.999414 134.281667,1.999414 L134.281667,1.999414 Z M143.108516,3.28993 L134.281667,3.28993 C133.934233,3.28993 133.65121,3.579148 133.65121,3.935188 L133.65121,3.935188 L133.65121,9.096091 C133.65121,9.451744 133.934233,9.741349 134.281667,9.741349 L134.281667,9.741349 L137.461176,9.741349 L137.031824,12.302042 L141.036089,9.741349 L143.108516,9.741349 C143.455827,9.741349 143.738973,9.451744 143.738973,9.096091 L143.738973,9.096091 L143.738973,3.935188 C143.738973,3.579148 143.455827,3.28993 143.108516,3.28993 L143.108516,3.28993 Z M139.955985,7.160704 L139.955985,8.450833 L134.912124,8.450833 L134.912124,7.160704 L139.955985,7.160704 Z M142.477936,7.160704 L142.477936,8.450833 L141.217022,8.450833 L141.217022,7.160704 L142.477936,7.160704 Z M142.477936,4.579672 L142.477936,5.870575 L134.912124,5.870575 L134.912124,4.579672 L142.477936,4.579672 Z" id="bigdata"></path>
                </g>
            </g>
        </g>
    </g>
</svg>