<?xml version="1.0" encoding="UTF-8"?>
<svg width="46px" height="40px" viewBox="0 0 46 40" version="1.1" xmlns="http://www.w3.org/2000/svg" xmlns:xlink="http://www.w3.org/1999/xlink">
    <title>gongzhonghao</title>
    <g id="Page-1" stroke="none" stroke-width="1" fill="none" fill-rule="evenodd">
        <g id="J&amp;S" transform="translate(-789.000000, -1153.000000)" fill="#0376F7">
            <g id="App-Overview" transform="translate(374.000000, 958.000000)">
                <g id="02" transform="translate(300.000000, 155.000000)">
                    <g id="Content" transform="translate(12.000000, 38.000000)">
                        <path d="M148.326111,22.890319 C148.698315,22.890319 148.999959,23.189341 148.999861,23.558668 L148.999861,23.558668 L148.999861,40.478351 C148.999861,41.317453 148.31195,41.999476 147.466357,41.999476 L147.466357,41.999476 L127.572406,41.999476 C127.200104,41.999476 126.898558,41.70011 126.898558,41.33117 C126.898558,40.96223 127.200104,40.663208 127.572406,40.663208 L127.572406,40.663208 L147.466455,40.663208 C147.568865,40.663208 147.652312,40.58039 147.652312,40.478351 L147.652312,40.478351 L147.652312,23.558668 C147.652312,23.189341 147.953858,22.890319 148.326111,22.890319 Z M147.466357,1.999414 C148.258981,1.999414 148.913229,2.598963 148.991972,3.364578 C148.997215,3.416178 148.999959,3.467778 148.999861,3.519765 L148.999861,3.519765 L148.999861,20.440609 C148.999861,20.809162 148.698315,21.108571 148.326013,21.108571 C147.953858,21.108571 147.652214,20.809162 147.652214,20.440609 L147.652214,20.440609 L147.652214,9.0902 L104.347631,9.0902 L104.347631,40.478738 C104.347631,40.58039 104.430931,40.663208 104.533488,40.663208 L104.533488,40.663208 L124.427537,40.663208 C124.799692,40.663208 125.101385,40.96223 125.101385,41.33117 C125.101385,41.700497 124.799692,41.999476 124.427537,41.999476 L124.427537,41.999476 L104.533488,41.999476 C103.687895,41.999476 102.999984,41.317453 102.999984,40.478351 L102.999984,40.478351 L102.999984,3.519765 C102.999984,3.467778 103.00263,3.416178 103.007873,3.364578 C103.086518,2.598963 103.740766,1.999414 104.533488,1.999414 L104.533488,1.999414 Z M133.6683,13.496797 C134.20044,13.496797 134.698378,13.730889 135.034371,14.140077 L135.034371,14.140077 L140.224843,20.459787 C140.430055,20.709531 140.421676,21.078471 140.211564,21.319228 L140.211564,21.319228 L126.928301,36.512246 C126.443103,37.067591 125.562818,37.073869 125.071642,36.512246 L125.071642,36.512246 L111.788232,21.319228 C111.575131,21.075332 111.572289,20.706005 111.774953,20.4594 L111.774953,20.4594 L116.965327,14.140077 C117.30132,13.730889 117.799454,13.496797 118.331643,13.496797 L118.331643,13.496797 Z M130.761522,21.549407 L121.238519,21.549407 L125.999947,34.591737 L130.761522,21.549407 Z M119.805171,21.549407 L113.773467,21.549407 L124.129911,33.395391 L119.805171,21.549407 Z M138.226378,21.549407 L132.194772,21.549407 L127.869934,33.395391 L138.226378,21.549407 Z M128.935586,14.833022 L123.06421,14.833022 L121.218723,20.213569 L130.781073,20.213569 L128.935586,14.833022 Z M121.640662,14.833022 L118.331643,14.833022 C118.206546,14.833022 118.089338,14.887761 118.010399,14.984296 L118.010399,14.984296 L113.715304,20.213569 L119.795077,20.213569 L121.640662,14.833022 Z M133.668447,14.832635 L130.359134,14.832635 L132.204719,20.213569 L138.284492,20.213569 L133.989446,14.984296 C133.910458,14.887761 133.793397,14.833022 133.668447,14.832635 L133.668447,14.832635 Z M109.014979,3.335682 L104.533488,3.335682 C104.443769,3.335682 104.368799,3.398978 104.351404,3.483 C104.349003,3.494739 104.347631,3.507639 104.347631,3.519765 L104.347631,3.519765 L104.347631,7.753588 L109.014979,7.753588 L109.014979,3.335682 Z M147.466357,3.335682 L110.362773,3.335682 L110.362773,7.753588 L147.652067,7.753588 L147.652067,3.519765 C147.652067,3.507639 147.650842,3.494739 147.648294,3.483 C147.630997,3.398978 147.555929,3.335682 147.466357,3.335682 L147.466357,3.335682 Z" id="gongzhonghao"></path>
                    </g>
                </g>
            </g>
        </g>
    </g>
</svg>