<?xml version="1.0" encoding="UTF-8"?>
<svg width="44px" height="40px" viewBox="0 0 44 40" version="1.1" xmlns="http://www.w3.org/2000/svg" xmlns:xlink="http://www.w3.org/1999/xlink">
    <title>softdev</title>
    <g id="Page-1" stroke="none" stroke-width="1" fill="none" fill-rule="evenodd">
        <g id="J&amp;S" transform="translate(-1087.000000, -1153.000000)" fill="#0376F7">
            <g id="App-Overview" transform="translate(374.000000, 958.000000)">
                <g id="Content" transform="translate(609.000000, 195.000000)">
                    <path d="M134.85112,-0.000973 C135.647958,-0.000973 136.370865,0.187023 137.000054,0.557511 C139.164169,1.831644 139.959644,5.097365 139.239792,9.752545 C139.101424,10.64673 138.909852,11.574971 138.670011,12.528195 C139.599389,12.792774 140.483318,13.08784 141.311881,13.413393 C145.624789,15.10454 147.999887,17.440515 147.999887,19.988695 C147.999887,21.627038 147.002782,23.209911 145.116108,24.567249 C144.799234,24.794719 144.361241,24.718093 144.137662,24.394905 C143.914271,24.071287 143.989894,23.624947 144.306768,23.396703 C145.350967,22.645536 146.595715,21.444933 146.595715,19.988695 C146.595715,17.735581 143.507627,15.385158 138.296455,13.896885 C137.710647,15.895568 136.923867,17.984938 135.961307,20.097356 C136.882413,22.139813 137.638314,24.159609 138.205933,26.094222 C139.578756,25.708082 140.839343,25.25469 141.954559,24.738819 C142.307623,24.575462 142.723714,24.735293 142.883843,25.095633 C143.043925,25.455973 142.887368,25.880426 142.53421,26.043396 C141.356719,26.587819 140.027277,27.065807 138.581886,27.471856 C138.821868,28.425123 139.013299,29.352934 139.151667,30.247549 C139.871519,34.903073 139.076044,38.16845 136.911835,39.44254 C136.279309,39.815393 135.560162,39.999476 134.770327,39.999476 C132.857662,39.999476 130.526838,38.920391 127.984091,36.823195 C127.304048,36.262389 126.622125,35.639405 125.942928,34.962886 C122.772449,38.115302 119.636421,39.978363 117.148711,39.978363 C116.351967,39.978363 115.628919,39.790754 114.999824,39.420266 C112.835662,38.146176 112.040281,34.880799 112.760133,30.225275 C112.898454,29.33066 113.089932,28.402806 113.329914,27.448808 C112.400442,27.185003 111.516607,26.889937 110.688044,26.564771 C106.375136,24.872893 103.999897,22.537692 103.999897,19.988695 C103.999897,17.440515 106.375136,15.10454 110.688279,13.413006 C111.491556,13.098031 112.346627,12.810748 113.244985,12.552017 C112.879043,11.103992 112.627922,9.720854 112.503889,8.434251 C112.465772,8.040715 112.747866,7.690136 113.133783,7.651436 C113.521251,7.612736 113.863317,7.900406 113.901199,8.293555 C114.018511,9.50981 114.256331,10.819891 114.602486,12.192064 C116.579588,11.709002 118.733927,11.356488 120.995755,11.146605 C122.281487,9.289779 123.620423,7.608823 124.966033,6.148715 C124.296894,5.478818 123.625593,4.86366 122.956924,4.312228 C119.89243,1.785118 117.215968,0.876442 115.614161,1.819905 C114.378061,2.547637 113.980535,4.247728 113.86468,5.545253 C113.82943,5.939606 113.489197,6.229985 113.101823,6.19365 C112.715718,6.157702 112.431086,5.809488 112.466242,5.415909 C112.675533,3.070947 113.521392,1.398591 114.912169,0.579398 C117.076143,-0.694692 120.246951,0.235097 123.83996,3.198743 C124.541717,3.777953 125.245636,4.42205 125.946453,5.124369 C129.154579,1.905088 132.334552,-0.000973 134.85112,-0.000973 Z M137.221518,27.824026 C135.296163,28.28361 133.200057,28.622063 131.006332,28.827646 C129.68629,30.734911 128.309989,32.456115 126.928142,33.943571 C127.573922,34.58612 128.221864,35.177413 128.867127,35.709366 C131.931715,38.237207 134.607801,39.145496 136.209843,38.202033 C137.811932,37.25857 138.378611,34.440737 137.76465,30.470676 C137.632956,29.618674 137.450408,28.733476 137.221518,27.824026 Z M114.689342,27.806439 C114.460922,28.714728 114.278844,29.597991 114.147385,30.448015 C113.533377,34.418463 114.100103,37.236296 115.702051,38.179759 C116.114946,38.423268 116.601772,38.54599 117.148805,38.54599 C119.039051,38.54599 121.588096,37.129226 124.326551,34.555633 C124.537252,34.357489 124.748376,34.15268 124.959406,33.942797 C123.563318,32.437324 122.19026,30.711433 120.884271,28.82025 C118.696186,28.612302 116.610138,28.27071 114.689342,27.806439 Z M122.714968,28.962107 C123.762598,30.406219 124.846465,31.735435 125.943492,32.920816 C127.038545,31.736596 128.124151,30.405445 129.170841,28.966794 C128.128052,29.027381 127.069001,29.059416 125.999892,29.059416 C124.890175,29.059416 123.792913,29.026177 122.714968,28.962107 Z M125.999892,12.350734 C124.532411,12.350734 123.122975,12.407408 121.777365,12.512156 C120.988423,13.681541 120.229232,14.906396 119.513939,16.169521 C118.775475,17.474485 118.099803,18.787705 117.492234,20.091465 C118.077478,21.337433 118.723634,22.589249 119.426049,23.830143 C120.139744,25.090946 120.8893,26.303675 121.664189,27.457021 C123.043686,27.568004 124.491333,27.627043 125.999892,27.627043 C127.434426,27.627043 128.849361,27.569982 130.227025,27.458999 C131.014369,26.291592 131.772197,25.069059 132.48608,23.808256 C133.185205,22.572479 133.828588,21.329607 134.41073,20.094604 C133.805464,18.796262 133.132894,17.490137 132.398049,16.191795 C131.67157,14.908718 130.908055,13.675263 130.118502,12.503943 C128.804382,12.404312 127.429726,12.350734 125.999892,12.350734 Z M135.160427,21.778312 C134.70495,22.694771 134.218453,23.61166 133.702017,24.523862 C133.164149,25.474764 132.607857,26.393975 132.03817,27.280764 C133.72594,27.08262 135.340437,26.802389 136.844343,26.445962 C136.398783,24.935415 135.834031,23.368968 135.160427,21.778312 Z M116.742067,21.778312 C116.070766,23.366216 115.507706,24.929137 115.063603,26.436975 C116.526149,26.788715 118.129789,27.074407 119.857274,27.278399 C119.291018,26.39591 118.74046,25.483364 118.209924,24.546136 C117.690245,23.628473 117.200646,22.703758 116.742067,21.778312 Z M113.61981,13.920707 C108.459304,15.410528 105.40421,17.747707 105.40421,19.988695 C105.40421,22.242196 108.492251,24.592275 113.703235,26.080548 C114.269491,24.149461 115.023277,22.133191 115.941939,20.09383 C114.986664,17.990399 114.203456,15.907694 113.61981,13.920707 Z M125.999892,16.40873 C127.935775,16.40873 129.510604,18.014221 129.510604,19.988695 C129.510604,21.963169 127.935775,23.569477 125.999892,23.569477 C124.06415,23.569477 122.489321,21.963169 122.489321,19.988695 C122.489321,18.014221 124.06415,16.40873 125.999892,16.40873 Z M125.999892,17.840329 C124.838569,17.840329 123.893493,18.804088 123.893493,19.988695 C123.893493,21.173302 124.838569,22.136674 125.999892,22.136674 C127.161356,22.136674 128.106291,21.173302 128.106291,19.988695 C128.106291,18.804088 127.161356,17.840329 125.999892,17.840329 Z M131.921751,12.673578 C132.50394,13.577567 133.069491,14.513591 133.614127,15.475802 C134.166424,16.4513 134.684599,17.431915 135.16696,18.411713 C135.878211,16.751096 136.472385,15.115075 136.936322,13.540845 C135.411407,13.174227 133.733695,12.878774 131.921751,12.673578 Z M119.968617,12.686091 C118.16471,12.894383 116.494659,13.192975 114.977734,13.561141 C115.439274,15.124449 116.030487,16.753031 116.736615,18.406639 C117.221373,17.421337 117.742415,16.434917 118.297908,15.453141 C118.837938,14.49953 119.396533,13.575589 119.968617,12.686091 Z M134.85112,1.431013 C132.960874,1.431013 130.411829,2.848551 127.673374,5.421757 C127.425026,5.655075 127.176349,5.89781 126.927766,6.147554 C128.286066,7.619401 129.621947,9.299583 130.894754,11.136844 C133.163444,11.342814 135.325256,11.691415 137.310536,12.171381 C137.538862,11.263092 137.72094,10.380216 137.85254,9.529375 C138.466501,5.559357 137.899822,2.741094 136.297874,1.797631 C135.884979,1.554509 135.398153,1.431013 134.85112,1.431013 Z M125.94838,7.174652 C124.890645,8.328729 123.842357,9.618471 122.830588,11.009048 C123.871309,10.948848 124.929749,10.918361 125.999892,10.918361 C127.03549,10.918361 128.059855,10.9473 129.068052,11.003587 C128.054779,9.610645 127.007901,8.32602 125.94838,7.174652 Z" id="softdev"></path>
                </g>
            </g>
        </g>
    </g>
</svg>