<?xml version="1.0" encoding="UTF-8"?>
<svg width="40px" height="40px" viewBox="0 0 40 40" version="1.1" xmlns="http://www.w3.org/2000/svg" xmlns:xlink="http://www.w3.org/1999/xlink">
    <title>weapp</title>
    <g id="Page-1" stroke="none" stroke-width="1" fill="none" fill-rule="evenodd">
        <g id="J&amp;S" transform="translate(-493.000000, -1153.000000)" fill="#0376F7">
            <g id="App-Overview" transform="translate(374.000000, 958.000000)">
                <g id="01" transform="translate(0.000000, 153.000000)">
                    <g id="Content" transform="translate(14.000000, 40.000000)">
                        <path d="M124.165452,2.190144 C124.695872,1.93336 125.30426,1.93336 125.834592,2.190144 L125.834592,2.190144 L132.506136,5.4219 C132.796492,5.563008 132.91824,5.913556 132.778056,6.204748 C132.637872,6.495896 132.28882,6.618216 131.998376,6.477548 L131.998376,6.477548 L125.327008,3.245396 C125.119196,3.144944 124.880804,3.144944 124.673124,3.245792 L124.673124,3.245792 L106.593172,12.003816 C106.024736,12.27974 106.025308,13.087976 106.593172,13.363152 C106.977116,13.549184 124.104688,21.84644 124.673124,22.121572 C124.880936,22.222024 125.119196,22.222024 125.327008,22.121572 C126.053492,21.76944 142.708328,13.7016 143.40696,13.363152 C143.975396,13.08758 143.974736,12.278992 143.40696,12.003816 L143.40696,12.003816 L134.45516,7.667616 C134.164848,7.526508 134.043056,7.176312 134.183152,6.885164 C134.323468,6.594016 134.67252,6.471256 134.962964,6.611968 L134.962964,6.611968 L143.914632,10.948608 C145.360604,11.649352 145.361396,13.717616 143.914632,14.41836 L143.914632,14.41836 L137.88188,17.340972 L143.914632,20.263188 C145.361044,20.963536 145.361264,23.032196 143.914632,23.732984 L143.914632,23.732984 L137.88166,26.655552 L143.914632,29.577768 C145.360472,30.278556 145.361528,32.347216 143.914632,33.047564 L143.914632,33.047564 L135.617112,37.067228 C135.326624,37.20794 134.977616,37.085576 134.837388,36.794428 C134.697204,36.502884 134.818996,36.152292 135.10944,36.01158 L135.10944,36.01158 L143.40696,31.992312 C143.975396,31.71718 143.974736,30.908152 143.40696,30.63302 L143.40696,30.63302 L136.538692,27.306312 L125.834592,32.4918 C125.30426,32.748584 124.695784,32.748584 124.16532,32.4918 L124.16532,32.4918 L113.461352,27.306312 L106.592952,30.63302 C106.024516,30.908944 106.025176,31.717576 106.592952,31.992312 L106.592952,31.992312 L124.673124,40.750776 C124.880716,40.851228 125.119196,40.851228 125.327008,40.750776 L125.327008,40.750776 L132.652392,37.202044 C132.942836,37.061376 133.29202,37.183696 133.432204,37.47524 C133.572388,37.766432 133.450596,38.116584 133.160284,38.257296 L133.160284,38.257296 L125.83468,41.805984 C125.30426,42.063164 124.69552,42.063164 124.165584,41.805984 L124.165584,41.805984 L106.085368,33.047564 C104.639528,32.347568 104.638516,30.278952 106.085368,29.577768 L106.085368,29.577768 L112.118252,26.655552 L106.085368,23.732984 C104.63944,23.032592 104.638384,20.963932 106.085368,20.263188 L106.085368,20.263188 L112.118252,17.340576 L106.085368,14.41836 C104.639308,13.718012 104.638648,11.649748 106.085368,10.948212 L106.085368,10.948212 Z M136.538824,17.991292 L125.83468,23.176824 C125.304348,23.433608 124.695872,23.433608 124.165452,23.176824 L124.165452,23.176824 L113.461352,17.991292 L106.59304,21.318836 C106.024516,21.593968 106.025308,22.4026 106.59304,22.678128 L106.59304,22.678128 L124.673124,31.436196 C124.880804,31.536604 125.119108,31.536604 125.32692,31.436196 L125.32692,31.436196 L143.40696,22.678128 C143.975528,22.402204 143.974824,21.593572 143.407092,21.318836 L143.407092,21.318836 L136.538824,17.991292 Z" id="weapp"></path>
                    </g>
                </g>
            </g>
        </g>
    </g>
</svg>